<svg width="432" height="401" viewBox="0 0 432 401" fill="none" xmlns="http://www.w3.org/2000/svg">
<g opacity="0.2" filter="url(#filter0_f_1602_33787)">
<rect x="167.501" y="167" width="96.74" height="66.0551" fill="#195AFE"/>
</g>
<path d="M209.497 173.242H226.179V224.693C226.179 229.299 222.445 233.034 217.838 233.034C213.231 233.034 209.497 229.299 209.497 224.693V173.242Z" fill="white"/>
<rect x="205.512" y="167" width="24.6581" height="6.6781" rx="2" fill="url(#paint0_linear_1602_33787)"/>
<path fill-rule="evenodd" clip-rule="evenodd" d="M222.735 219.306H212.942L212.942 224.693C212.942 227.397 215.134 229.59 217.839 229.59C220.543 229.59 222.735 227.397 222.735 224.693V219.306Z" fill="#D8E3FF"/>
<line x1="213.943" y1="179.655" x2="217.908" y2="179.655" stroke="#D8E3FF" stroke-width="2" stroke-linecap="round" stroke-linejoin="bevel"/>
<line x1="213.942" y1="188.242" x2="217.907" y2="188.242" stroke="#D8E3FF" stroke-width="2" stroke-linecap="round" stroke-linejoin="bevel"/>
<line x1="213.942" y1="192.536" x2="217.907" y2="192.536" stroke="#D8E3FF" stroke-width="2" stroke-linecap="round" stroke-linejoin="bevel"/>
<line x1="213.942" y1="183.949" x2="221.735" y2="183.949" stroke="#D8E3FF" stroke-width="2" stroke-linecap="round" stroke-linejoin="bevel"/>
<path fill-rule="evenodd" clip-rule="evenodd" d="M159.752 191.047C158.317 191.047 157.349 192.513 157.912 193.832L159.987 198.694H159.972V231.034C159.972 232.138 160.867 233.034 161.972 233.034H193.355C194.459 233.034 195.355 232.138 195.355 231.034V198.694H195.339L197.413 193.832C197.976 192.513 197.008 191.047 195.573 191.047H159.752Z" fill="white"/>
<path d="M163.149 225.429H192.27V229.052C192.27 230.157 191.374 231.052 190.27 231.052H165.149C164.044 231.052 163.149 230.157 163.149 229.052V225.429Z" fill="#D8E3FF"/>
<path d="M190.398 206.389H184.02" stroke="#D8E3FF" stroke-width="2" stroke-linecap="round" stroke-linejoin="bevel"/>
<path d="M190.398 201.77H184.02" stroke="#D8E3FF" stroke-width="2" stroke-linecap="round" stroke-linejoin="bevel"/>
<path d="M190.398 214.976H184.02" stroke="#D8E3FF" stroke-width="2" stroke-linecap="round" stroke-linejoin="bevel"/>
<path d="M190.398 219.27H184.02" stroke="#D8E3FF" stroke-width="2" stroke-linecap="round" stroke-linejoin="bevel"/>
<path d="M190.397 210.682H177.665" stroke="#D8E3FF" stroke-width="2" stroke-linecap="round" stroke-linejoin="bevel"/>
<path d="M255.889 189.934H245.883V207.576C245.883 208.55 245.599 209.503 245.065 210.317L235.245 225.292C233.064 228.617 235.45 233.034 239.426 233.034H262.348C266.324 233.034 268.71 228.617 266.529 225.292L256.708 210.316C256.174 209.501 255.889 208.548 255.889 207.574V189.934Z" fill="white"/>
<rect x="242.812" y="184.949" width="16.1519" height="4.98584" rx="2" fill="url(#paint1_linear_1602_33787)"/>
<path opacity="0.2" fill-rule="evenodd" clip-rule="evenodd" d="M237.844 226.306L236.913 227.726C236.173 228.854 236.983 230.352 238.332 230.352H263.449C264.798 230.352 265.608 228.854 264.868 227.726L263.937 226.306H237.844Z" fill="url(#paint2_linear_1602_33787)"/>
<path d="M134.538 250.947C134.538 241.054 142.557 233.034 152.451 233.034H277.087C286.98 233.034 295 241.054 295 250.947H134.538Z" fill="url(#paint3_linear_1602_33787)"/>
<defs>
<filter id="filter0_f_1602_33787" x="0.500854" y="0" width="430.74" height="400.055" filterUnits="userSpaceOnUse" color-interpolation-filters="sRGB">
<feFlood flood-opacity="0" result="BackgroundImageFix"/>
<feBlend mode="normal" in="SourceGraphic" in2="BackgroundImageFix" result="shape"/>
<feGaussianBlur stdDeviation="83.5" result="effect1_foregroundBlur_1602_33787"/>
</filter>
<linearGradient id="paint0_linear_1602_33787" x1="209.13" y1="173.678" x2="228.141" y2="163.877" gradientUnits="userSpaceOnUse">
<stop stop-color="#C4D5FF"/>
<stop offset="1" stop-color="#E8EFFF"/>
</linearGradient>
<linearGradient id="paint1_linear_1602_33787" x1="245.182" y1="189.934" x2="258.267" y2="184.015" gradientUnits="userSpaceOnUse">
<stop stop-color="#C4D5FF"/>
<stop offset="1" stop-color="#E8EFFF"/>
</linearGradient>
<linearGradient id="paint2_linear_1602_33787" x1="240.289" y1="228.784" x2="254.827" y2="200.225" gradientUnits="userSpaceOnUse">
<stop stop-color="#195AFE"/>
<stop offset="1" stop-color="#AAC2FF"/>
</linearGradient>
<linearGradient id="paint3_linear_1602_33787" x1="214.769" y1="230.232" x2="214.769" y2="250.947" gradientUnits="userSpaceOnUse">
<stop stop-color="#D0DDFE"/>
<stop offset="1" stop-color="white" stop-opacity="0"/>
</linearGradient>
</defs>
</svg>
